HIERARCHY
ROOT Hips
{
	OFFSET 0.000000 100.481300 0.000000
	CHANNELS 6 Xposition Yposition Zposition Xrotation Yrotation Zrotation
	JOINT Spine
	{
		OFFSET -0.279200 12.230698 -2.892100
		CHANNELS 3 Xrotation Yrotation Zrotation
		JOINT Spine1
		{
			OFFSET -0.325700 14.269203 -3.374200
			CHANNELS 3 Xrotation Yrotation Zrotation
			JOINT Spine2
			{
				OFFSET -0.372300 16.307602 -0.352600
				CHANNELS 3 Xrotation Yrotation Zrotation
				JOINT Neck
				{
					OFFSET -0.418800 17.814194 8.416900
					CHANNELS 3 Xrotation Yrotation Zrotation
					JOINT Head
					{
						OFFSET 0.000000 7.031097 3.806800
						CHANNELS 3 Xrotation Yrotation Zrotation
						JOINT HeadTop_End
						{
							OFFSET 0.000000 24.646606 12.978600
							CHANNELS 3 Xrotation Yrotation Zrotation
							End Site
							{
								OFFSET 0.000000 27.854965 0.000000
							}
						}
					}
				}
				JOINT LeftShoulder
				{
					OFFSET 16.952999 14.495407 -7.737500
					CHANNELS 3 Xrotation Yrotation Zrotation
					JOINT LeftArm
					{
						OFFSET 9.308998 -2.777710 0.208600
						CHANNELS 3 Xrotation Yrotation Zrotation
						JOINT LeftForeArm
						{
							OFFSET 29.972298 0.000000 0.000000
							CHANNELS 3 Xrotation Yrotation Zrotation
							JOINT LeftHand
							{
								OFFSET 26.026505 0.000000 0.000000
								CHANNELS 3 Xrotation Yrotation Zrotation
								JOINT LeftHandThumb1
								{
									OFFSET 12.240501 -7.147949 9.207150
									CHANNELS 3 Xrotation Yrotation Zrotation
									JOINT LeftHandThumb2
									{
										OFFSET 4.138618 -2.389435 2.389433
										CHANNELS 3 Xrotation Yrotation Zrotation
										JOINT LeftHandThumb3
										{
											OFFSET 2.726913 -1.574387 1.574386
											CHANNELS 3 Xrotation Yrotation Zrotation
											JOINT LeftHandThumb4
											{
												OFFSET 3.941010 -2.275345 2.275342
												CHANNELS 3 Xrotation Yrotation Zrotation
												End Site
												{
													OFFSET -0.005798 5.087799 0.009903
												}
											}
										}
									}
								}
								JOINT LeftHandIndex1
								{
									OFFSET 24.424698 -1.985611 5.953459
									CHANNELS 3 Xrotation Yrotation Zrotation
									JOINT LeftHandIndex2
									{
										OFFSET 6.426697 0.000000 0.000000
										CHANNELS 3 Xrotation Yrotation Zrotation
										JOINT LeftHandIndex3
										{
											OFFSET 5.337898 0.000000 0.000000
											CHANNELS 3 Xrotation Yrotation Zrotation
											JOINT LeftHandIndex4
											{
												OFFSET 4.409401 0.000000 0.000000
												CHANNELS 3 Xrotation Yrotation Zrotation
												End Site
												{
													OFFSET 0.000000 4.409363 0.014373
												}
											}
										}
									}
								}
								JOINT LeftHandMiddle1
								{
									OFFSET 23.810104 0.000000 0.000000
									CHANNELS 3 Xrotation Yrotation Zrotation
									JOINT LeftHandMiddle2
									{
										OFFSET 7.176498 0.000000 0.000000
										CHANNELS 3 Xrotation Yrotation Zrotation
										JOINT LeftHandMiddle3
										{
											OFFSET 6.774902 0.000000 0.000000
											CHANNELS 3 Xrotation Yrotation Zrotation
											JOINT LeftHandMiddle4
											{
												OFFSET 5.403328 0.000000 0.000000
												CHANNELS 3 Xrotation Yrotation Zrotation
												End Site
												{
													OFFSET -0.027702 5.403244 0.017414
												}
											}
										}
									}
								}
								JOINT LeftHandRing1
								{
									OFFSET 22.908401 -0.839279 -6.020567
									CHANNELS 3 Xrotation Yrotation Zrotation
									JOINT LeftHandRing2
									{
										OFFSET 6.337502 0.000000 0.000000
										CHANNELS 3 Xrotation Yrotation Zrotation
										JOINT LeftHandRing3
										{
											OFFSET 5.779297 0.000000 0.000000
											CHANNELS 3 Xrotation Yrotation Zrotation
											JOINT LeftHandRing4
											{
												OFFSET 4.965698 0.000000 0.000000
												CHANNELS 3 Xrotation Yrotation Zrotation
												End Site
												{
													OFFSET 0.000000 4.965668 0.016186
												}
											}
										}
									}
								}
								JOINT LeftHandPinky1
								{
									OFFSET 20.037003 -1.530319 -10.950146
									CHANNELS 3 Xrotation Yrotation Zrotation
									JOINT LeftHandPinky2
									{
										OFFSET 5.254700 0.000000 0.000000
										CHANNELS 3 Xrotation Yrotation Zrotation
										JOINT LeftHandPinky3
										{
											OFFSET 4.810204 0.000000 0.000000
											CHANNELS 3 Xrotation Yrotation Zrotation
											JOINT LeftHandPinky4
											{
												OFFSET 3.647202 0.000000 0.000000
												CHANNELS 3 Xrotation Yrotation Zrotation
												End Site
												{
													OFFSET 0.000000 3.647186 0.011889
												}
											}
										}
									}
								}
							}
						}
					}
				}
				JOINT RightShoulder
				{
					OFFSET -15.141001 14.495407 -7.737500
					CHANNELS 3 Xrotation Yrotation Zrotation
					JOINT RightArm
					{
						OFFSET -9.308998 -2.777710 0.208500
						CHANNELS 3 Xrotation Yrotation Zrotation
						JOINT RightForeArm
						{
							OFFSET -29.972300 0.000000 0.000000
							CHANNELS 3 Xrotation Yrotation Zrotation
							JOINT RightHand
							{
								OFFSET -26.026505 0.000000 0.000000
								CHANNELS 3 Xrotation Yrotation Zrotation
								JOINT RightHandThumb1
								{
									OFFSET -12.240601 -7.148026 9.207092
									CHANNELS 3 Xrotation Yrotation Zrotation
									JOINT RightHandThumb2
									{
										OFFSET -4.138618 -2.389435 2.389433
										CHANNELS 3 Xrotation Yrotation Zrotation
										JOINT RightHandThumb3
										{
											OFFSET -2.726974 -1.574417 1.574421
											CHANNELS 3 Xrotation Yrotation Zrotation
											JOINT RightHandThumb4
											{
												OFFSET -3.941010 -2.275345 2.275343
												CHANNELS 3 Xrotation Yrotation Zrotation
												End Site
												{
													OFFSET 0.005814 5.087799 0.009927
												}
											}
										}
									}
								}
								JOINT RightHandIndex1
								{
									OFFSET -24.424698 -1.985657 5.953444
									CHANNELS 3 Xrotation Yrotation Zrotation
									JOINT RightHandIndex2
									{
										OFFSET -6.426697 0.000000 0.000000
										CHANNELS 3 Xrotation Yrotation Zrotation
										JOINT RightHandIndex3
										{
											OFFSET -5.337898 0.000000 0.000000
											CHANNELS 3 Xrotation Yrotation Zrotation
											JOINT RightHandIndex4
											{
												OFFSET -4.409401 0.000000 0.000000
												CHANNELS 3 Xrotation Yrotation Zrotation
												End Site
												{
													OFFSET 0.000000 4.409363 0.014408
												}
											}
										}
									}
								}
								JOINT RightHandMiddle1
								{
									OFFSET -23.810097 0.000000 0.000000
									CHANNELS 3 Xrotation Yrotation Zrotation
									JOINT RightHandMiddle2
									{
										OFFSET -7.176498 0.000000 0.000000
										CHANNELS 3 Xrotation Yrotation Zrotation
										JOINT RightHandMiddle3
										{
											OFFSET -6.774902 0.000000 0.000000
											CHANNELS 3 Xrotation Yrotation Zrotation
											JOINT RightHandMiddle4
											{
												OFFSET -5.403328 0.000000 0.000000
												CHANNELS 3 Xrotation Yrotation Zrotation
												End Site
												{
													OFFSET 0.027702 5.403244 0.017457
												}
											}
										}
									}
								}
								JOINT RightHandRing1
								{
									OFFSET -22.908302 -0.839325 -6.020576
									CHANNELS 3 Xrotation Yrotation Zrotation
									JOINT RightHandRing2
									{
										OFFSET -6.337502 0.000000 0.000000
										CHANNELS 3 Xrotation Yrotation Zrotation
										JOINT RightHandRing3
										{
											OFFSET -5.779297 0.000000 0.000000
											CHANNELS 3 Xrotation Yrotation Zrotation
											JOINT RightHandRing4
											{
												OFFSET -4.965698 0.000000 0.000000
												CHANNELS 3 Xrotation Yrotation Zrotation
												End Site
												{
													OFFSET 0.000000 4.965668 0.016226
												}
											}
										}
									}
								}
								JOINT RightHandPinky1
								{
									OFFSET -20.037003 -1.530334 -10.950259
									CHANNELS 3 Xrotation Yrotation Zrotation
									JOINT RightHandPinky2
									{
										OFFSET -5.254700 0.000000 0.000000
										CHANNELS 3 Xrotation Yrotation Zrotation
										JOINT RightHandPinky3
										{
											OFFSET -4.810204 0.000000 0.000000
											CHANNELS 3 Xrotation Yrotation Zrotation
											JOINT RightHandPinky4
											{
												OFFSET -3.647202 0.000000 0.000000
												CHANNELS 3 Xrotation Yrotation Zrotation
												End Site
												{
													OFFSET 0.000000 3.647186 0.011917
												}
											}
										}
									}
								}
							}
						}
					}
				}
			}
		}
	}
	JOINT LeftUpLeg
	{
		OFFSET 15.427100 -6.655098 0.678600
		CHANNELS 3 Xrotation Yrotation Zrotation
		JOINT LeftLeg
		{
			OFFSET 4.081073 -39.591068 13.024000
			CHANNELS 3 Xrotation Yrotation Zrotation
			JOINT LeftFoot
			{
				OFFSET -4.081074 -37.707932 -15.979700
				CHANNELS 3 Xrotation Yrotation Zrotation
				JOINT LeftToeBase
				{
					OFFSET 5.346399 -15.068900 20.645000
					CHANNELS 3 Xrotation Yrotation Zrotation
					JOINT LeftToe_End
					{
						OFFSET 2.754700 0.931300 11.300900
						CHANNELS 3 Xrotation Yrotation Zrotation
						End Site
						{
							OFFSET 0.000000 11.669021 0.000000
						}
					}
				}
			}
		}
	}
	JOINT RightUpLeg
	{
		OFFSET -15.569500 -6.655098 0.678600
		CHANNELS 3 Xrotation Yrotation Zrotation
		JOINT RightLeg
		{
			OFFSET -4.081825 -39.591045 13.023800
			CHANNELS 3 Xrotation Yrotation Zrotation
			JOINT RightFoot
			{
				OFFSET 4.081824 -37.707954 -15.979600
				CHANNELS 3 Xrotation Yrotation Zrotation
				JOINT RightToeBase
				{
					OFFSET -5.346400 -15.068900 20.645000
					CHANNELS 3 Xrotation Yrotation Zrotation
					JOINT RightToe_End
					{
						OFFSET -2.754700 0.931300 11.300900
						CHANNELS 3 Xrotation Yrotation Zrotation
						End Site
						{
							OFFSET 0.000000 11.669021 0.000000
						}
					}
				}
			}
		}
	}
}
MOTION
Frames: 4
Frame Time: 0.033333
21.169655 67.523590 407.036682 -178.393271 47.253083 167.323871 7.014100 1.809355 2.524805 14.136087 1.320567 0.090806 14.136079 1.320570 0.090808 -5.209841 4.697893 -1.754862 -35.315346 22.805978 5.383928 -0.000000 0.000001 0.000000 3.045204 -8.534297 -14.029703 -2.344888 -29.316951 -35.202580 0.199466 -74.636557 0.264257 16.530929 1.260014 24.264090 16.851514 -12.853953 -10.631800 -0.518187 4.573781 0.169943 0.000005 0.000004 -0.000012 -0.000001 0.000001 0.000001 -2.496340 -1.236970 -10.092807 0.059926 0.452562 -16.109027 0.000000 -0.000001 -0.000000 0.000002 -0.000001 0.000001 0.406491 3.529469 -12.958581 -0.229903 -1.279667 -17.772905 0.000001 -0.000008 -0.000000 0.000001 -0.000002 0.000001 0.973436 5.308507 -18.316184 -0.129175 -1.777909 -18.079046 -0.000002 0.000001 0.000005 -0.000000 -0.000004 0.000001 2.590070 12.896664 -18.615896 0.082109 -2.618891 -15.106661 0.000001 -0.000001 0.000000 -0.000000 0.000002 -0.000001 -0.200652 -3.841508 11.345567 2.044291 1.972095 50.223484 -0.049158 59.593387 -0.106578 -3.617359 0.855379 -18.407290 -0.643449 17.453905 -7.561632 1.270179 -4.762844 -2.204939 0.000014 -0.000002 -0.000005 0.000000 -0.000001 0.000002 -0.350164 10.609436 7.964584 0.035513 -0.525554 8.864315 0.000005 -0.000008 -0.000010 -0.000001 0.000002 -0.000001 -1.616180 -0.296941 4.596052 -0.187198 0.918414 17.540325 -0.000000 -0.000002 -0.000002 0.000001 -0.000003 0.000003 1.020861 -11.417601 6.592769 -0.428743 2.128057 18.667330 0.000017 -0.000002 0.000000 0.000001 -0.000000 0.000001 0.410795 -14.490405 20.507438 -0.122429 2.845345 11.278330 -0.000000 -0.000000 -0.000000 0.000004 -0.000001 0.000001 -64.786127 -9.911634 17.941281 89.886259 -5.612252 -4.180244 0.645563 3.169311 0.929913 -8.919483 -0.012349 -0.875878 -0.000000 0.000001 -0.000000 -4.177015 -14.953618 -32.684456 37.278086 5.154285 4.244880 -19.336252 -13.817176 35.810955 -8.875144 -0.171061 0.425810 -0.000000 -0.000000 -0.000000 
20.854971 71.551910 407.544037 -181.024192 43.001590 169.919069 6.369630 1.612263 2.656580 12.856699 1.216015 -0.462754 12.856696 1.215999 -0.462753 -5.161824 4.103537 -1.107523 -33.914959 20.150774 6.439344 0.000000 0.000000 0.000000 3.395556 -8.190124 -12.143344 0.243502 -30.488534 -33.019180 0.141827 -70.027300 0.219329 19.775037 -1.179236 23.935151 16.798319 -12.767629 -12.459525 -0.152804 5.800114 -0.076468 0.000007 0.000003 -0.000014 0.000001 -0.000000 -0.000000 -2.357936 -1.301902 -11.341702 0.061968 0.464254 -16.303530 0.000000 0.000001 -0.000002 0.000000 0.000004 -0.000002 0.465333 3.579872 -14.610396 -0.236222 -1.293117 -18.071157 -0.000001 -0.000008 0.000001 0.000002 0.000001 -0.000001 1.028506 5.254076 -19.454291 -0.137740 -1.834346 -18.554409 -0.000002 0.000005 0.000002 -0.000000 -0.000000 0.000001 2.820158 13.258851 -20.012797 0.081474 -2.716132 -15.469427 -0.000001 0.000003 -0.000002 -0.000001 0.000002 -0.000001 -0.246316 -5.051018 9.479219 3.579333 1.173343 50.423086 -0.051949 60.776492 -0.109549 -3.802418 1.035570 -22.412484 -0.397560 16.319771 -6.364413 1.201186 -4.635151 -2.205710 0.000010 -0.000002 -0.000006 -0.000002 0.000001 -0.000001 -0.459496 10.357528 9.289307 0.039602 -0.548365 9.245044 0.000001 -0.000009 -0.000009 0.000000 0.000001 -0.000000 -1.733083 -0.280252 6.377973 -0.193324 0.928644 17.880421 -0.000002 -0.000002 0.000005 0.000001 -0.000000 0.000002 1.212583 -11.139909 8.841569 -0.438183 2.170151 18.982795 0.000016 -0.000001 -0.000003 0.000001 -0.000000 -0.000000 0.814805 -13.818449 23.837953 -0.184597 3.109440 12.500656 0.000001 0.000001 0.000001 0.000002 -0.000001 -0.000002 -59.905581 -13.307174 14.290562 85.603922 -6.575880 -3.473652 4.451842 9.841270 0.617729 -10.590184 0.393705 -7.516125 -0.000002 -0.000001 -0.000000 -0.054944 -16.659625 -28.145154 30.607864 4.650406 3.890503 -16.203145 -19.318145 33.204517 -7.080113 -0.174761 0.430295 -0.000000 -0.000001 -0.000000 
20.281593 76.072739 407.609436 -182.808442 39.392481 171.695943 5.848505 1.361765 2.783491 11.811901 1.147389 -0.765238 11.811901 1.147391 -0.765238 -5.051932 3.695345 -1.147874 -32.537778 17.913559 7.101332 -0.000000 0.000000 0.000000 3.773206 -7.161972 -10.274561 1.950941 -30.649750 -32.311969 0.114687 -67.133424 0.201676 22.492557 -2.702723 22.796453 17.720147 -12.127245 -14.134496 0.468071 7.808270 -0.511862 0.000008 -0.000001 -0.000011 0.000001 -0.000004 0.000001 -2.255486 -1.099558 -13.460775 0.075337 0.494933 -17.734543 0.000005 -0.000001 0.000001 0.000003 0.000003 -0.000002 0.477697 3.414685 -16.146111 -0.263557 -1.375982 -19.266666 0.000000 -0.000008 -0.000000 -0.000002 0.000000 -0.000000 1.070176 5.186501 -20.434613 -0.187821 -1.990296 -20.240472 -0.000005 0.000002 0.000006 0.000001 -0.000001 0.000000 2.813414 13.437082 -20.478958 0.073754 -2.828947 -15.955971 -0.000001 0.000001 -0.000000 -0.000000 -0.000001 -0.000002 -0.306722 -5.926115 8.360101 4.155521 -0.192480 50.955387 -0.062117 60.890023 -0.104541 -4.739559 -0.991080 -26.346458 -0.204089 15.702347 -5.995564 1.130966 -4.505229 -2.206308 0.000011 -0.000000 -0.000011 -0.000003 -0.000000 0.000002 -0.296675 10.418108 9.751007 0.041468 -0.562510 9.389890 0.000001 -0.000007 -0.000010 0.000001 0.000001 -0.000003 -1.785197 -0.278982 7.126049 -0.196230 0.927122 18.023749 -0.000000 -0.000001 0.000001 -0.000000 0.000000 -0.000000 1.266902 -11.300599 9.968974 -0.437224 2.183883 19.021064 0.000017 -0.000001 0.000001 -0.000001 -0.000002 0.000003 0.954393 -13.505506 25.899944 -0.262113 3.396958 13.865464 0.000001 0.000001 -0.000001 0.000002 -0.000000 0.000001 -51.765433 -17.545597 11.990075 76.740256 -7.452311 -2.940694 8.398764 11.487395 -3.721025 -21.887522 2.418844 -9.017316 0.000000 -0.000003 0.000000 2.768842 -17.361296 -24.635297 24.454468 3.078400 3.414958 -12.046563 -21.791845 29.868168 -4.665412 -0.179468 0.436497 -0.000000 0.000001 0.000000 
19.685820 80.287346 408.373657 -183.908581 36.619964 173.482584 5.463018 1.082533 2.424586 11.013619 1.055987 -0.870495 11.013619 1.055996 -0.870496 -5.288946 3.567750 -1.799020 -31.284076 16.133047 7.322062 0.000000 0.000000 -0.000000 4.116610 -5.725744 -8.761842 2.364495 -28.925971 -32.997563 0.106554 -66.208910 0.201474 22.775105 -2.550090 21.298249 17.634372 -12.100129 -14.427634 0.691225 8.447178 -0.641243 0.000006 0.000006 -0.000015 0.000000 -0.000000 0.000003 -2.078001 -1.128685 -14.396441 0.075637 0.503115 -17.686836 -0.000003 -0.000002 0.000002 -0.000001 -0.000000 -0.000002 0.537117 3.519447 -16.138197 -0.265845 -1.375278 -19.388709 -0.000003 -0.000009 0.000000 -0.000001 0.000000 0.000001 1.085944 5.259900 -20.056850 -0.199179 -2.048210 -20.730346 -0.000005 0.000003 0.000005 0.000001 0.000001 0.000000 2.823379 13.860949 -20.627622 0.068267 -2.934010 -16.368723 0.000002 0.000000 -0.000000 -0.000001 -0.000001 -0.000002 -0.395205 -6.293142 7.688433 3.925438 -2.120048 51.167737 -0.064371 60.955108 -0.105591 -4.379148 -3.140326 -27.526994 -0.081659 15.419214 -6.179439 1.059578 -4.373225 -2.206735 0.000009 -0.000002 -0.000006 -0.000002 0.000000 0.000000 0.068770 10.861094 9.613810 0.040720 -0.567155 9.275857 0.000001 -0.000010 -0.000009 0.000002 0.000001 -0.000000 -1.779355 -0.269229 6.892469 -0.197104 0.918053 18.041726 -0.000005 0.000000 -0.000002 -0.000002 0.000000 -0.000000 1.170333 -11.685798 9.898701 -0.427197 2.173402 18.822326 0.000014 0.000002 -0.000007 0.000001 -0.000000 -0.000002 0.842866 -13.753998 26.497972 -0.346277 3.678983 15.204459 -0.000002 0.000000 0.000001 -0.000001 -0.000001 0.000001 -41.434912 -21.671429 12.082151 65.786975 -7.104235 -2.650266 0.640557 10.004353 -10.235438 -20.413181 0.898632 -3.920843 -0.000000 -0.000002 0.000000 2.374782 -16.728633 -23.435284 22.049587 1.688079 2.938398 -7.981354 -20.138072 26.536142 -2.613807 -0.190085 1.131654 -0.000000 -0.000000 0.000000 
